<?xml version="1.0" standalone="no"?>
<!DOCTYPE svg PUBLIC "-//W3C//DTD SVG 20010904//EN"
 "http://www.w3.org/TR/2001/REC-SVG-20010904/DTD/svg10.dtd">
<svg version="1.0" xmlns="http://www.w3.org/2000/svg"
 width="512.000000pt" height="512.000000pt" viewBox="0 0 512.000000 512.000000"
 preserveAspectRatio="xMidYMid meet">
<metadata>
Created by potrace 1.11, written by Peter Selinger 2001-2013
</metadata>
<g transform="translate(0.000000,512.000000) scale(0.100000,-0.100000)"
fill="#000000" stroke="none">
<path d="M2157 5068 c-110 -171 -273 -272 -487 -303 -25 -4 -85 -10 -135 -14
l-89 -6 -1 -120 0 -120 -722 -3 -723 -2 0 -1760 0 -1760 1035 0 c569 0 1035
-3 1035 -6 0 -3 -6 -32 -14 -63 -8 -31 -17 -69 -19 -86 -9 -54 -39 -178 -60
-245 -23 -74 -44 -107 -105 -168 -86 -85 -166 -109 -362 -111 -80 -1 -147 -4
-150 -7 -2 -3 -5 -70 -5 -150 l0 -144 1206 0 1207 0 0 150 0 150 -116 0 c-201
1 -278 18 -361 79 -106 77 -139 142 -191 381 -22 102 -43 192 -46 201 -4 15
80 16 1013 17 560 0 1026 1 1036 1 16 1 17 92 17 1761 l0 1760 -719 0 c-566 0
-720 3 -723 13 -2 6 -3 63 -2 125 l1 112 -41 1 c-179 2 -341 39 -466 108 -59
32 -179 154 -210 214 l-25 47 -372 0 -372 0 -34 -52z"/>
</g>
</svg>
